<svg width="78" height="141" viewBox="0 0 78 141" fill="none" xmlns="http://www.w3.org/2000/svg">
<g clip-path="url(#clip0_461_4697)">
<path d="M34.5799 1.01758L40.9642 23.7175L27.7374 62.7223L7.66992 1.01758H34.5799Z" fill="#CD3414"/>
<path d="M30.5518 1.01758L38.5173 30.9355L39.5487 27.8916L32.3936 1.01758H30.5518Z" fill="#FFCE45"/>
<path d="M16.793 72.3007V59.0739C16.793 57.3112 18.2215 55.8809 19.986 55.8809H56.017C57.7797 55.8809 59.21 57.3094 59.21 59.0739V72.7571H51.9129V65.9164C51.9129 64.1537 50.4844 62.7234 48.7198 62.7234H27.7395C25.9768 62.7234 24.5465 64.1519 24.5465 65.9164V70.4769L16.793 72.3007Z" fill="#FCAB28"/>
<path d="M29.4614 57.6407L30.4102 54.843L12.9392 1.01758H11.083L29.4614 57.6407Z" fill="#FFCE45"/>
<path d="M64.2157 129.306C78.8207 114.701 78.8207 91.0217 64.2157 76.4167C49.6108 61.8117 25.9314 61.8117 11.3265 76.4167C-3.2785 91.0217 -3.2785 114.701 11.3265 129.306C25.9314 143.911 49.6108 143.911 64.2157 129.306Z" fill="#FCAB28"/>
<path d="M0.373047 102.859C0.373047 104.895 0.538359 106.891 0.851016 108.837C6.28117 111.908 12.5541 113.664 19.2366 113.664C39.8917 113.664 56.635 96.9206 56.635 76.2655C56.635 74.2297 56.4697 72.2334 56.157 70.2873C50.7269 67.2165 44.454 65.4609 37.7714 65.4609C17.1163 65.4609 0.373047 82.2042 0.373047 102.859Z" fill="#FFCE45"/>
<path d="M27.7373 62.7237H50.9978L77.4514 0.699219H48.2612L27.7373 62.7237Z" fill="#FE5629"/>
<path d="M37.7712 129.962C22.8266 129.962 10.6689 117.805 10.6689 102.86C10.6689 87.9155 22.8266 75.7578 37.7712 75.7578C52.7158 75.7578 64.8735 87.9155 64.8735 102.86C64.8735 117.805 52.7158 129.962 37.7712 129.962ZM37.7712 76.6688C23.3297 76.6688 11.58 88.4186 11.58 102.86C11.58 117.302 23.3297 129.051 37.7712 129.051C52.2127 129.051 63.9625 117.302 63.9625 102.86C63.9625 88.4186 52.2127 76.6688 37.7712 76.6688Z" fill="#FCAB28"/>
<path d="M8.81132 87.8065C8.81132 87.8065 5.84647 81.6486 12.2326 78.6855C12.2326 78.6855 12.689 85.0716 8.81132 87.8065Z" fill="#FFE266"/>
<path d="M9.03885 90.3148C9.03885 90.3148 8.58244 85.7543 15.8795 84.6133C15.8795 84.6133 14.7385 88.9455 9.03885 90.3148Z" fill="#FFE266"/>
<path d="M14.1235 81.1434C14.1235 81.1434 12.5045 74.5039 19.365 72.9316C19.365 72.9316 18.4845 79.2728 14.1235 81.1434Z" fill="#FFE266"/>
<path d="M13.8242 83.6444C13.8242 83.6444 14.3255 79.0875 21.7017 79.49C21.7017 79.49 19.6856 83.4917 13.8242 83.6444Z" fill="#FFE266"/>
<path d="M20.316 75.813C20.316 75.813 19.9835 68.9867 27.0201 68.7441C27.0201 68.7441 24.9537 74.8032 20.316 75.813Z" fill="#FFE266"/>
<path d="M19.5488 78.2142C19.5488 78.2142 20.9055 73.8353 28.0696 75.6285C28.0696 75.6285 25.3312 79.1756 19.5488 78.2142Z" fill="#FFE266"/>
<path d="M27.2695 71.7398C27.2695 71.7398 28.9766 65.1219 35.767 66.9763C35.767 66.9763 31.9971 72.1495 27.2695 71.7398Z" fill="#FFE266"/>
<path d="M25.8252 73.8032C25.8252 73.8032 28.4181 70.0244 34.7305 73.8607C34.7305 73.8607 31.0649 76.4356 25.8252 73.8032Z" fill="#FFE266"/>
<path d="M35.3252 70.1085C35.3252 70.1085 38.9549 64.319 44.8666 68.1409C44.8666 68.1409 39.7078 71.9306 35.3252 70.1085Z" fill="#FFE266"/>
<path d="M33.3252 71.6385C33.3252 71.6385 36.9405 68.821 41.7957 74.3896C41.7957 74.3896 37.5227 75.7336 33.3252 71.6385Z" fill="#FFE266"/>
<path d="M43.7725 70.7736C43.7725 70.7736 48.9007 66.258 53.4792 71.6055C53.4792 71.6055 47.4543 73.7672 43.7725 70.7736Z" fill="#FFE266"/>
<path d="M41.4189 71.6722C41.4189 71.6722 45.6883 70.0029 48.7556 76.7215C48.7556 76.7215 44.276 76.7933 41.4189 71.6722Z" fill="#FFE266"/>
<path d="M51.623 74.0922C51.623 74.0922 57.5779 70.7411 60.9452 76.9241C60.9452 76.9241 54.6023 77.7866 51.623 74.0922Z" fill="#FFE266"/>
<path d="M49.1348 74.4789C49.1348 74.4789 53.6575 73.7332 55.2603 80.9423C55.2603 80.9423 50.8634 80.0816 49.1348 74.4789Z" fill="#FFE266"/>
<path d="M58.4248 78.6191C58.4248 78.6191 64.9079 76.4575 67.0408 83.1652C67.0408 83.1652 60.6493 82.8095 58.4248 78.6191Z" fill="#FFE266"/>
<path d="M55.9082 78.5293C55.9082 78.5293 60.4902 78.6533 60.6987 86.0366C60.6987 86.0366 56.5443 84.3584 55.9082 78.5293Z" fill="#FFE266"/>
<path d="M64.2227 84.2151C64.2227 84.2151 71.0544 84.0731 71.1029 91.1133C71.1029 91.1133 65.1049 88.8779 64.2227 84.2151Z" fill="#FFE266"/>
<path d="M61.8461 83.3828C61.8461 83.3828 66.1856 84.8598 64.1947 91.9737C64.1947 91.9737 60.7249 89.1382 61.8461 83.3828Z" fill="#FFE266"/>
<path d="M67.97 91.5312C67.97 91.5312 74.525 93.4647 72.4388 100.187C72.4388 100.187 67.3986 96.2409 67.97 91.5312Z" fill="#FFE266"/>
<path d="M65.9571 90.0176C65.9571 90.0176 69.6442 92.7398 65.5941 98.9157C65.5941 98.9157 63.1467 95.1638 65.9571 90.0176Z" fill="#FFE266"/>
<path d="M70.1895 99.3516C70.1895 99.3516 75.988 102.969 72.1786 108.888C72.1786 108.888 68.3782 103.736 70.1895 99.3516Z" fill="#FFE266"/>
<path d="M68.6547 97.3535C68.6547 97.3535 71.4793 100.963 65.9234 105.829C65.9234 105.829 64.5686 101.558 68.6547 97.3535Z" fill="#FFE266"/>
<path d="M69.2655 107.83C69.2655 107.83 74.1853 112.574 69.2278 117.573C69.2278 117.573 66.581 111.744 69.2655 107.83Z" fill="#FFE266"/>
<path d="M68.1803 105.557C68.1803 105.557 70.1928 109.675 63.7474 113.28C63.7474 113.28 63.3108 108.82 68.1803 105.557Z" fill="#FFE266"/>
<path d="M66.8826 115.641C66.8826 115.641 70.8142 121.231 64.9995 125.198C64.9995 125.198 63.5045 118.974 66.8826 115.641Z" fill="#FFE266"/>
<path d="M66.2481 113.203C66.2481 113.203 67.4448 117.629 60.4316 119.947C60.4316 119.947 60.8485 115.485 66.2481 113.203Z" fill="#FFE266"/>
<path d="M63.187 122.799C63.187 122.799 65.284 129.304 58.5547 131.368C58.5547 131.368 58.9734 124.98 63.187 122.799Z" fill="#FFE266"/>
<path d="M63.3021 120.283C63.3021 120.283 63.1314 124.863 55.748 124.998C55.748 124.998 57.4677 120.862 63.3021 120.283Z" fill="#FFE266"/>
<path d="M57.2547 128.488C57.2547 128.488 57.2853 135.322 50.2451 135.254C50.2451 135.254 52.5775 129.291 57.2547 128.488Z" fill="#FFE266"/>
<path d="M58.1258 126.128C58.1258 126.128 56.5769 130.442 49.499 128.335C49.499 128.335 52.3902 124.913 58.1258 126.128Z" fill="#FFE266"/>
<path d="M51.3012 132.92C51.3012 132.92 49.7648 139.579 42.9277 137.9C42.9277 137.9 46.5646 132.632 51.3012 132.92Z" fill="#FFE266"/>
<path d="M52.6906 130.818C52.6906 130.818 50.1948 134.664 43.7871 130.991C43.7871 130.991 47.3863 128.322 52.6906 130.818Z" fill="#FFE266"/>
<path d="M42.9918 134.8C42.9918 134.8 40.106 140.993 33.7666 137.93C33.7666 137.93 38.4187 133.533 42.9918 134.8Z" fill="#FFE266"/>
<path d="M44.7893 133.036C44.7893 133.036 41.5496 136.277 36.0439 131.354C36.0439 131.354 40.1193 129.492 44.7893 133.036Z" fill="#FFE266"/>
<path d="M34.8239 135.087C34.8239 135.087 30.815 140.622 25.1729 136.414C25.1729 136.414 30.5743 132.978 34.8239 135.087Z" fill="#FFE266"/>
<path d="M36.9227 133.694C36.9227 133.694 33.1259 136.263 28.6553 130.384C28.6553 130.384 33.0091 129.327 36.9227 133.694Z" fill="#FFE266"/>
<path d="M26.8489 133.919C26.8489 133.919 21.3793 138.016 17.2393 132.323C17.2393 132.323 23.4169 130.643 26.8489 133.919Z" fill="#FFE266"/>
<path d="M29.265 133.211C29.265 133.211 24.8788 134.539 22.3506 127.6C22.3506 127.6 26.8212 127.882 29.265 133.211Z" fill="#FFE266"/>
<path d="M19.5423 130.156C19.5423 130.156 13.0898 132.406 10.8652 125.727C10.8652 125.727 17.2603 125.996 19.5423 130.156Z" fill="#FFE266"/>
<path d="M22.062 130.214C22.062 130.214 17.4782 130.151 17.1709 122.771C17.1709 122.771 21.3468 124.394 22.062 130.214Z" fill="#FFE266"/>
<path d="M13.7789 125.527C13.7789 125.527 6.97418 126.161 6.41895 119.143C6.41895 119.143 12.5625 120.939 13.7789 125.527Z" fill="#FFE266"/>
<path d="M16.2104 126.188C16.2104 126.188 11.7757 125.027 13.2491 117.789C13.2491 117.789 16.913 120.368 16.2104 126.188Z" fill="#FFE266"/>
<path d="M9.38471 118.23C9.38471 118.23 2.59791 117.436 3.51252 110.457C3.51252 110.457 9.14932 113.492 9.38471 118.23Z" fill="#FFE266"/>
<path d="M11.6265 119.379C11.6265 119.379 7.53143 117.321 10.4765 110.549C10.4765 110.549 13.5258 113.832 11.6265 119.379Z" fill="#FFE266"/>
<path d="M6.54527 110.562C6.54527 110.562 0.0316013 108.495 2.25434 101.816C2.25434 101.816 7.21371 105.865 6.54527 110.562Z" fill="#FFE266"/>
<path d="M8.52748 112.118C8.52748 112.118 4.896 109.322 9.07194 103.229C9.07194 103.229 11.442 107.031 8.52748 112.118Z" fill="#FFE266"/>
<path d="M5.15012 102.63C5.15012 102.63 -0.457929 98.7252 3.64434 93.0039C3.64434 93.0039 7.18059 98.3406 5.15012 102.63Z" fill="#FFE266"/>
<path d="M6.58132 104.702C6.58132 104.702 3.94171 100.953 9.73663 96.373C9.73663 96.373 10.8741 100.707 6.58132 104.702Z" fill="#FFE266"/>
<path d="M6.42367 94.5103C6.42367 94.5103 2.26031 89.0909 7.9025 84.8809C7.9025 84.8809 9.65805 91.037 6.42367 94.5103Z" fill="#FFE266"/>
<path d="M7.16163 96.9202C7.16163 96.9202 5.77983 92.5502 12.6888 89.9375C12.6888 89.9375 12.4606 94.4117 7.16163 96.9202Z" fill="#FFE266"/>
<path d="M30.3027 62.7237H32.1697L54.4114 0.699219H52.5445L30.3027 62.7237Z" fill="#FFCE45"/>
<path d="M46.3848 62.7237H48.2715L74.2381 0.699219H72.3514L46.3848 62.7237Z" fill="#FFCE45"/>
</g>
<defs>
<clipPath id="clip0_461_4697">
<rect width="77.0788" height="139.56" fill="white" transform="translate(0.373047 0.699219)"/>
</clipPath>
</defs>
</svg>
