<svg width="112" height="142" viewBox="0 0 112 142" fill="none" xmlns="http://www.w3.org/2000/svg">
<g clip-path="url(#clip0_456_4453)">
<path d="M78.4727 55.133L69.9607 71.1176C69.9607 71.1176 61.7936 76.1576 38.1616 61.2123C14.5296 46.267 15.3987 40.5371 15.3987 40.5371L25.8237 20.7266L78.4727 55.133Z" fill="#263238"/>
<path opacity="0.1" d="M78.4727 55.133L69.9607 71.1176C69.9607 71.1176 61.7936 76.1576 38.1616 61.2123C14.5296 46.267 15.3987 40.5371 15.3987 40.5371L25.8237 20.7266L78.4727 55.133Z" fill="white"/>
<path d="M59.4058 14.5698C63.6573 18.5794 102.311 49.8767 111.638 57.421C112.324 57.9766 111.943 59.0831 111.06 59.101L60.5706 59.9836C59.7328 59.997 58.9264 59.6745 58.3306 59.0876L0.92834 1.90935C0.39522 1.38071 0.892499 0.480234 1.62722 0.654954L58.3395 14.0009C58.7383 14.095 59.1056 14.2876 59.4058 14.5698Z" fill="#263238"/>
<path d="M90.6357 87.1513C91.1374 87.1513 91.5496 86.7436 91.5496 86.2418C91.6168 76.5964 91.6974 60.3027 91.5227 59.6038C91.4152 59.1647 91.3435 58.878 75.1662 45.4828C67.2859 38.9554 59.3205 32.4281 59.2398 32.3609C58.8501 32.0428 58.2721 32.0966 57.9496 32.4908C57.627 32.8806 57.6853 33.4585 58.075 33.781C69.956 43.5206 87.7819 58.2553 89.7397 60.2041C89.8337 62.3276 89.7755 76.6681 89.7128 86.2374C89.7128 86.7436 90.116 87.1558 90.6222 87.1602H90.6267L90.6357 87.1513Z" fill="#92E3A9" stroke="#263238" stroke-width="0.448" stroke-linecap="round" stroke-linejoin="round"/>
<path d="M87.7372 85.8164H93.5254V93.0785H87.7372V85.8164Z" fill="#92E3A9" stroke="#263238" stroke-width="0.448" stroke-linecap="round" stroke-linejoin="round"/>
<path d="M93.3195 93.168C93.548 96.5907 95.0756 119.224 96.339 127.041C97.6964 135.459 98.2968 138.111 98.3012 138.134C98.346 138.331 98.2251 138.532 98.028 138.577C98.0011 138.582 97.9742 138.586 97.9473 138.586C97.7816 138.586 97.6292 138.47 97.5889 138.299C97.5844 138.273 96.9796 135.607 95.6177 127.158C94.3454 119.273 92.8043 96.4249 92.5892 93.168H93.324H93.3195Z" fill="#92E3A9" stroke="#263238" stroke-width="0.448" stroke-linecap="round" stroke-linejoin="round"/>
<path d="M92.2398 93.168C92.4996 97.6614 94.3947 129.416 97.02 139.912C97.0692 140.109 96.9528 140.311 96.7556 140.36C96.7243 140.369 96.6974 140.374 96.666 140.374C96.5003 140.374 96.3524 140.262 96.3121 140.096C93.6644 129.505 91.756 97.527 91.5096 93.1724H92.2443L92.2398 93.168Z" fill="#92E3A9" stroke="#263238" stroke-width="0.448" stroke-linecap="round" stroke-linejoin="round"/>
<path d="M91.2492 93.168C91.5359 96.9894 94.206 131.768 96.2309 140.315C96.2757 140.513 96.1548 140.714 95.9576 140.759C95.9308 140.768 95.8994 140.768 95.8725 140.768C95.7068 140.768 95.5589 140.656 95.5186 140.486C93.4712 131.844 90.7788 96.7116 90.5144 93.168H91.2492Z" fill="#92E3A9" stroke="#263238" stroke-width="0.448" stroke-linecap="round" stroke-linejoin="round"/>
<path d="M90.8901 93.168C91.1007 97.5225 92.8972 133.793 94.268 140.625C94.3084 140.826 94.1784 141.019 93.9813 141.059C93.9589 141.064 93.932 141.068 93.9096 141.068C93.7394 141.068 93.5871 140.947 93.5512 140.772C92.1445 133.784 90.3704 97.5987 90.1554 93.168H90.8901Z" fill="#92E3A9" stroke="#263238" stroke-width="0.448" stroke-linecap="round" stroke-linejoin="round"/>
<path d="M88.9336 93.168H89.6683C89.7938 97.6614 90.6539 129.832 89.6504 141.126C89.6325 141.319 89.4757 141.462 89.2875 141.462C89.2786 141.462 89.2651 141.462 89.2562 141.462C89.0546 141.444 88.9067 141.265 88.9247 141.064C89.9237 129.792 89.0635 97.5763 88.9381 93.168H88.9336Z" fill="#92E3A9" stroke="#263238" stroke-width="0.448" stroke-linecap="round" stroke-linejoin="round"/>
<path d="M89.7266 93.168H90.4613C90.6629 97.751 92.446 138.008 92.3519 140.616C92.3429 140.813 92.1816 140.97 91.9845 140.97C91.9845 140.97 91.9756 140.97 91.9711 140.97C91.7695 140.961 91.6127 140.79 91.6172 140.589C91.7068 138.035 89.9103 97.3075 89.7266 93.168Z" fill="#92E3A9" stroke="#263238" stroke-width="0.448" stroke-linecap="round" stroke-linejoin="round"/>
<path d="M89.1172 93.168C89.0545 98.1766 88.5437 139.845 88.5437 140.168C88.5437 140.369 88.378 140.535 88.1764 140.535C87.9748 140.535 87.809 140.369 87.809 140.168C87.809 139.89 88.3153 98.4992 88.3825 93.168H89.1172Z" fill="#92E3A9" stroke="#263238" stroke-width="0.448" stroke-linecap="round" stroke-linejoin="round"/>
<path d="M92.8395 93.168C93.0769 97.5673 94.8375 129.089 97.2209 137.126C97.2791 137.323 97.1671 137.529 96.9745 137.587C96.9387 137.596 96.9028 137.601 96.8715 137.601C96.7147 137.601 96.5668 137.498 96.522 137.336C94.0759 129.089 92.3422 97.5942 92.1092 93.168H92.8439H92.8395Z" fill="#92E3A9" stroke="#263238" stroke-width="0.448" stroke-linecap="round" stroke-linejoin="round"/>
<path d="M55.8123 30.762C55.3375 31.5505 56.3275 33.0244 58.0299 34.0548C59.7323 35.0852 61.4975 35.2734 61.9768 34.4849C62.4517 33.6964 61.4616 32.2225 59.7592 31.1921C58.0568 30.1617 56.2917 29.9736 55.8123 30.762Z" fill="#92E3A9" stroke="#263238" stroke-width="0.448" stroke-linecap="round" stroke-linejoin="round"/>
</g>
<defs>
<clipPath id="clip0_456_4453">
<rect width="111.283" height="141.053" fill="white" transform="matrix(-1 0 0 1 111.993 0.630859)"/>
</clipPath>
</defs>
</svg>
