<svg width="162" height="124" viewBox="0 0 162 124" fill="none" xmlns="http://www.w3.org/2000/svg">
<g clip-path="url(#clip0_464_5254)">
<path d="M123.874 0.386719H30.3125V67.1325H123.874V0.386719Z" fill="#EAEFF3"/>
<path d="M30.3125 0.386719V67.1325H123.874V0.386719H30.3125ZM120.086 63.1197H34.0943V4.48532H120.079V63.1197H120.086Z" fill="#292C3D"/>
<path d="M19.7596 20.1335C17.8852 19.9025 16.519 19.0775 15.1792 17.7773C15.562 21.3809 14.4268 25.1033 14.4268 25.1033C14.4268 25.1033 14.605 36.9107 19.4098 35.4917C24.208 34.0727 21.1192 26.3903 21.1192 26.3903C20.0104 24.6215 19.7728 21.9551 19.7596 20.1335Z" fill="#E45940"/>
<path d="M17.3761 7.98269C17.3761 7.98269 22.8673 7.40189 23.8771 9.61949C24.8803 11.8371 23.7187 14.8071 24.0355 15.8169C24.3523 16.8201 24.1939 23.1495 22.3987 23.3079C20.6035 23.4663 14.9473 19.4007 14.7889 14.6421C14.6305 9.89009 16.0033 8.05529 17.3761 7.98269Z" fill="#F88667"/>
<path d="M21.8772 21.3622C21.8772 21.3622 21.93 21.3556 21.9564 21.3556C22.1346 21.3556 22.293 21.3622 22.458 21.3688C22.5174 21.2368 22.5636 21.1048 22.623 20.9728C22.7286 20.7286 22.8408 20.4844 22.9464 20.2402C23.1048 19.7782 23.2434 19.3096 23.3688 18.841C23.1114 18.808 22.8606 18.7684 22.6032 18.709C21.9036 19.0456 21.1974 19.3822 20.4912 19.7188C20.3526 19.7848 20.2206 19.8442 20.082 19.9102C20.709 20.3656 21.3096 20.8474 21.8772 21.3622Z" fill="white"/>
<path d="M44.8398 34.9192C44.8398 34.9192 46.6812 33.5134 46.9716 33.1174C47.262 32.7214 48.516 29.824 49.2288 28.4842C49.9416 27.1444 53.6838 25.666 53.994 26.6164C54.2976 27.5668 52.7268 27.778 51.0702 28.9132C51.0702 28.9132 51.2418 29.1442 51.4134 29.1508C51.585 29.164 54.1788 32.6224 52.2846 33.8566C50.3904 35.0908 47.922 35.1832 46.2852 36.622C46.2852 36.622 44.9718 35.8696 44.8464 34.9192H44.8398Z" fill="#F88667"/>
<path d="M17.284 115.418C17.284 115.418 16.624 119.371 17.0332 120.467C17.35 121.305 29.2564 121.431 29.9296 120.698C30.5962 119.972 29.4808 118.698 28.9 118.408C28.3126 118.117 22.234 115.451 22.234 115.451L17.2906 115.418H17.284Z" fill="#292C3D"/>
<path d="M9.72138 116.17H4.63278C4.63278 116.17 1.94658 119.813 1.99278 120.737C2.03238 121.661 6.11778 123.377 7.04178 123.377C7.96578 123.377 11.246 121.173 11.2064 120.777C11.1668 120.374 9.72798 116.17 9.72798 116.17H9.72138Z" fill="#292C3D"/>
<path d="M24.18 13.486C24.18 13.486 26.0544 12.6676 25.632 10.5556C25.2096 8.44357 24.1536 7.12358 21.0384 6.25238C17.9232 5.38118 15.0654 5.66498 14.6826 8.25878C14.6826 8.25878 16.1478 12.7798 19.7646 12.5686C23.3814 12.3574 24.4836 12.3574 24.18 13.4926V13.486Z" fill="#292C3D"/>
<path d="M24.1678 18.2719C24.1678 18.2719 23.6398 17.7175 22.399 17.7043C20.3662 17.6845 19.2244 19.6579 19.033 19.6579C17.7592 19.6711 16.3732 16.7803 16.3732 16.7803C15.0928 15.9355 15.502 14.7607 16.1884 14.4571C16.8748 14.1535 17.2312 15.1831 17.3368 15.7639C17.4424 16.3447 17.8318 16.7209 18.1684 16.2259C18.505 15.7309 17.746 16.1467 18.2476 13.4539C18.7492 10.7611 16.8748 9.67867 16.8748 9.67867L14.776 7.35547C9.87876 9.52027 13.0864 17.3479 14.4262 19.1101C16.9738 22.4695 20.8612 25.6573 23.191 24.1723C24.6232 23.2549 24.1678 18.2785 24.1678 18.2785V18.2719ZM21.1714 19.7371C21.1714 19.7371 22.3198 19.7503 22.9534 19.3939C22.9534 19.3939 22.3594 21.0571 21.1714 19.7371Z" fill="#292C3D"/>
<path d="M24.7685 53.4112L10.3343 53.1406C10.3343 53.1406 8.13654 56.7376 7.64814 67.126C7.31154 74.2408 7.02114 76.2076 6.31494 85.606C5.83314 91.9882 3.56934 116.448 3.56934 116.448H11.2451C11.2451 116.448 14.4923 88.5364 14.6573 87.0118C14.7167 86.4772 16.6175 71.5282 16.6175 71.5282C16.6175 71.5282 16.3073 85.0846 16.3073 86.6356C16.3073 88.1866 15.9707 115.656 15.9707 115.656H24.0557C24.0557 115.656 24.9665 92.305 25.0391 86.959C25.1645 78.3064 25.9037 56.1964 24.7751 53.4046L24.7685 53.4112Z" fill="#292C3D"/>
<path d="M27.7972 26.834L24.9658 37.6118C24.9658 37.6118 30.193 47.3468 32.833 47.4788C35.4664 47.6108 48.0196 36.5294 48.0196 36.5294L45.901 32.9192C45.901 32.9192 35.0374 41.0636 34.4302 40.859C33.823 40.6544 29.665 27.2036 27.7972 26.834Z" fill="#73C4D1"/>
<path d="M14.473 24.8008C14.473 24.8008 7.76739 25.7116 6.15039 26.5894C6.15039 26.5894 10.711 33.889 9.29199 38.5882C9.29199 38.5882 8.02479 54.712 8.13039 58.2298C8.13039 58.2298 16.552 61.3516 26.1286 58.3552C26.1286 58.3552 25.9768 40.5814 25.9834 37.8358C25.9834 37.8358 26.8084 30.4504 27.805 26.8336C27.805 26.8336 24.2608 26.0812 20.6242 25.408C20.6242 25.408 20.9212 25.7842 19.3834 27.7444C18.4594 28.9192 14.7568 27.2032 14.4796 24.8074L14.473 24.8008Z" fill="#73C4D1"/>
<path d="M25.9768 37.8371C25.9768 37.8371 26.1748 36.0419 26.4982 33.7847C25.3036 35.0387 25.1254 40.5101 24.967 41.4143C24.2344 45.5789 18.7762 47.0837 15.2386 44.8463C11.9452 42.7607 11.5492 37.5203 10.7638 34.1081C10.348 32.2931 9.17978 30.8807 7.73438 29.6465C8.88938 32.1941 10.1104 35.8307 9.27877 38.5829C9.27877 38.5829 8.01157 54.7067 8.11717 58.2245C8.11717 58.2245 16.5388 61.3463 26.1154 58.3499C26.1154 58.3499 25.9636 40.5761 25.9702 37.8305L25.9768 37.8371Z" fill="#199FB3"/>
<path d="M8.40741 63.839C8.90901 64.4528 10.5722 66.4394 10.3016 67.3172C10.031 68.195 8.64501 66.6044 8.13681 66.0698C7.62861 65.5286 7.56261 67.3568 7.69461 68.3336C7.82661 69.317 9.82641 70.934 9.62181 71.6138C9.41721 72.287 8.26881 71.3432 7.02801 69.515C7.02801 69.515 8.98821 71.7656 8.53941 72.0824C8.09061 72.3992 6.98181 71.2508 6.10401 69.9176C6.10401 69.9176 7.99821 72.0494 7.52301 72.3002C7.04781 72.551 5.74761 71.066 5.25921 70.307C5.25921 70.307 6.86961 72.056 6.42741 72.3398C6.07101 72.5708 4.90941 71.5214 4.44741 70.1354C3.99201 68.7494 5.34501 64.2218 5.27241 63.3572C5.20641 62.4926 4.92921 61.4168 4.92921 61.4168C4.92921 61.4168 7.70781 60.7898 7.72101 60.7832C7.66821 60.7964 7.65501 62.915 8.39421 63.8258L8.40741 63.839Z" fill="#F88667"/>
<path d="M8.44007 62.3552L4.58567 63.3716C4.58567 63.3716 0.104266 48.6338 0.784066 45.116C1.45727 41.5982 3.10727 28.418 6.14987 26.5898C6.14987 26.5898 10.0241 27.7118 10.2551 32.4704C10.3871 35.1698 9.28487 38.5886 9.28487 38.5886C9.28487 38.5886 6.85607 43.235 6.54587 46.4888C6.28847 49.1948 8.44007 62.3552 8.44007 62.3552Z" fill="#73C4D1"/>
<path d="M20.3988 24.8L19.0194 27.44L14.5776 24.041L13.2246 25.064L17.4684 30.8984L19.224 28.034L21.6198 29.8556L21.7122 25.6118L20.3988 24.8Z" fill="#F8F8F8"/>
<path d="M38.7809 44.9976C38.7809 44.9976 62.5871 14.2086 63.0029 14.0766C63.4187 13.9446 40.3715 46.4562 40.3715 46.4562C40.3715 46.4562 39.9227 46.905 39.0977 46.2912C38.6951 45.9942 38.5037 45.3936 38.7875 44.991L38.7809 44.9976Z" fill="#292C3D"/>
<path d="M52.7922 30.2073C52.7922 30.2073 51.195 30.7881 50.3568 30.8409C49.5516 30.8871 49.7496 30.0885 50.2842 29.7981C50.8386 29.5011 52.8582 28.5507 53.3796 28.8015C53.9076 29.0589 53.703 30.0027 53.3928 30.1149C53.3928 30.1149 54.1452 30.5109 53.6502 31.2831C53.6502 31.2831 54.0396 32.1279 53.5578 32.5173C53.5578 32.5173 53.7954 33.5007 53.1552 33.7053C52.515 33.9099 50.799 34.0023 50.5746 33.5535C50.3106 33.0189 51.162 32.7483 52.8516 32.5899C52.8516 32.5899 51.0234 32.9067 50.7132 32.8737C50.2842 32.8275 49.1556 31.8771 52.8054 31.4943C52.8054 31.4943 49.8882 32.3193 49.7562 31.5801C49.5912 30.6429 52.7856 30.2073 52.7856 30.2073H52.7922Z" fill="#F88667"/>
<path d="M110.397 66.8224L110.437 70.096C110.437 70.096 124.337 70.9672 128.237 69.6274C132.138 68.281 140.361 57.4438 141.061 55.6288C141.906 53.4442 138.685 48.1378 135.504 52.9756C132.316 57.8134 126.548 64.321 126.218 64.5256C125.888 64.7302 110.397 66.829 110.397 66.829V66.8224Z" fill="#F25D59"/>
<path d="M113.46 68.2421C113.46 68.2421 112.054 67.7735 111.764 67.7405C111.474 67.7075 108.193 65.9915 107.718 66.1829C107.243 66.3743 102.762 68.1035 102.755 68.5391C102.748 68.9813 103.897 68.8493 106.345 67.6877C106.345 67.6877 103.171 68.9351 103.587 69.3707C103.996 69.8129 106.88 68.3345 106.88 68.3345C106.88 68.3345 104.002 69.5291 104.484 69.9317C104.966 70.3277 107.639 68.8163 107.639 68.8163C107.639 68.8163 105.56 69.9449 105.732 70.1957C105.897 70.4465 107.078 70.1957 108.497 69.4433C108.497 69.4433 108.741 69.3707 109.282 69.7139C109.824 70.0571 113.777 69.9779 113.777 69.9779L113.46 68.2553V68.2421Z" fill="#E45940"/>
<path d="M100.814 69.3709L105.507 61.4113C105.507 61.4113 106.629 60.7513 106.635 62.1175L101.217 69.6811C101.217 69.6811 99.9692 71.2255 100.814 69.3709Z" fill="#292C3D"/>
<path d="M111.987 67.1865C111.987 67.1865 110.443 67.1865 110.126 67.1535C109.803 67.1139 105.902 64.2297 105.407 64.5003C104.912 64.7643 100.286 67.2063 100.338 67.8003C100.398 68.3943 101.632 68.1963 104.133 66.5661C104.133 66.5661 100.853 68.3217 101.368 68.9091C101.883 69.4965 104.807 67.4373 104.807 67.4373C104.807 67.4373 101.843 69.1203 102.431 69.6549C103.018 70.1895 105.711 68.0775 105.711 68.0775C105.711 68.0775 103.612 69.6483 103.836 69.9849C104.054 70.3215 105.308 69.9519 106.747 68.9091C106.747 68.9091 107.334 69.0213 107.909 69.5625C109.09 70.6779 112.595 69.9783 112.595 69.9783L111.987 67.1931V67.1865Z" fill="#F88667"/>
<path d="M138.143 44.4613C138.631 44.3623 140.961 39.4453 141.958 38.4883C142.433 41.8477 144.466 49.8139 144.466 49.8139C142.004 52.4539 137.087 50.8369 137.087 50.8369C137.892 49.0879 138.282 45.6097 138.143 44.4679V44.4613Z" fill="#E45940"/>
<path d="M140.441 32.4901C140.441 32.4901 135.946 33.4999 135.081 34.8133C134.217 36.1267 134.223 39.5389 133.748 40.4365C133.458 40.9843 133.2 41.4199 133.055 41.7433C132.93 42.0271 133.247 42.1921 133.636 42.3241C133.834 42.3967 133.992 42.5551 134.058 42.7597C134.322 43.5847 135.068 45.6901 135.807 45.9805C136.731 46.3435 141.312 46.2049 142.691 42.2185C144.071 38.2321 143.312 31.6321 140.434 32.4901H140.441Z" fill="#F88667"/>
<path d="M120 114.112L123.208 113.584C123.208 113.584 123.373 116.633 123.637 117.333C123.637 117.333 120.033 119.055 116.344 117.689C116.344 117.689 118.7 116.673 119.314 115.953C119.928 115.234 119.994 114.105 119.994 114.105L120 114.112Z" fill="#F88667"/>
<path d="M123.353 115.899C123.353 115.899 120.911 117.595 117.123 117.325C117.123 117.325 112.516 119.793 112.219 120.407C111.803 121.272 113.823 121.324 116.971 121.219C119.657 121.133 119.459 120.928 120.001 120.4C120.542 119.872 121.215 119.285 121.215 119.285C121.215 119.285 121.459 119.615 121.736 121.153L122.938 120.981C122.938 120.981 122.799 119.503 123.38 118.717C123.789 118.163 124.258 116.876 123.353 115.893V115.899Z" fill="#292C3D"/>
<path d="M132.943 113.326L135.365 112.666C135.365 112.666 136.791 115.042 137.207 115.662C137.207 115.662 134.078 118.137 130.178 117.629C130.178 117.629 132.25 116.118 132.692 115.28C133.135 114.441 132.95 113.326 132.95 113.326H132.943Z" fill="#F88667"/>
<path d="M136.935 115.096C136.935 115.096 134.665 117.01 130.863 117.089C130.863 117.089 126.501 119.967 126.263 120.613C125.926 121.511 127.946 121.379 131.068 120.989C133.734 120.653 133.523 120.468 134.005 119.894C134.493 119.32 135.107 118.673 135.107 118.673C135.107 118.673 135.384 118.983 135.8 120.481L136.981 120.198C136.981 120.198 136.704 118.739 137.213 117.907C137.569 117.32 137.912 115.993 136.929 115.096H136.935Z" fill="#292C3D"/>
<path d="M144.129 69.0137L137.8 73.4951C137.8 73.4951 117.261 77.4551 114.66 79.4087C112.053 81.3623 131.24 116.012 131.24 116.012L137.213 114.026C137.213 114.026 122.877 83.3489 124.184 82.0421C125.484 80.7419 146.605 78.8147 147.938 78.4121C149.238 78.0227 147.383 73.3433 144.136 69.0137H144.129Z" fill="#514553"/>
<path d="M144.129 69.0137L137.8 73.4951C137.8 73.4951 117.261 77.4551 114.66 79.4087C112.053 81.3623 131.24 116.012 131.24 116.012L137.213 114.026C137.213 114.026 122.877 83.3489 124.184 82.0421C125.484 80.7419 146.605 78.8147 147.938 78.4121C149.238 78.0227 147.383 73.3433 144.136 69.0137H144.129Z" fill="#3D3848"/>
<path d="M146.071 71.0527L137.794 71.7523C137.794 71.7523 116.021 76.5637 113.354 79.0519C110.978 81.2761 117.776 115.662 117.776 115.662L124.258 114.025C124.258 114.025 120.601 83.3221 122.192 82.3915C123.565 81.5863 145.826 81.5863 147.212 81.5863C149.219 81.5863 150.631 75.6595 146.064 71.0527H146.071Z" fill="#514553"/>
<path d="M143.733 48.1445C143.733 48.1445 140.334 49.6889 137.173 50.6327C137.173 50.6327 133.312 58.2557 133.055 60.3809C132.797 62.5061 130.811 73.6139 130.811 73.6139C130.811 73.6139 143.08 77.8841 148.591 75.1583C148.591 75.1583 146.862 66.5915 147.469 62.0837C148.076 57.5759 147.548 51.4841 143.733 48.1445Z" fill="#F25D59"/>
<path d="M142.255 61.1135C142.242 64.9283 139.786 66.7961 137.265 69.2645C135.774 70.7231 133.879 72.1949 133.015 74.3267C131.662 73.9307 130.804 73.6205 130.804 73.6205C130.804 73.6205 132.005 67.9049 132.592 63.7337C135.127 62.6051 136.467 60.1829 137.371 57.6089C137.892 56.1173 138.176 55.1537 139.126 54.0449C141.925 54.1241 142.096 57.3977 142.255 60.4601C142.255 60.6779 142.255 60.9023 142.255 61.1135Z" fill="#DA3934"/>
<path d="M160.986 50.8371L152.703 83.9493L149.277 83.0913L156.399 49.6953L160.986 50.8371Z" fill="#292C3D"/>
<path d="M124.566 84.9141H123.193V121.049H124.566V84.9141Z" fill="#292C3D"/>
<path d="M149.963 84.9141H148.59V121.049H149.963V84.9141Z" fill="#292C3D"/>
<path d="M153.64 81.5859H119.512V86.3115H153.64V81.5859Z" fill="#292C3D"/>
<path d="M136.341 36.3306C137.51 36.3636 138.473 36.7597 139.1 37.8817C139.391 38.4097 139.582 39.1026 139.47 39.723C139.404 40.053 138.566 41.4258 139.424 41.538C139.826 41.5908 140.123 40.746 140.328 40.5084C140.882 39.8616 141.516 40.0662 141.918 40.7526C142.407 41.5974 141.892 42.2046 141.272 42.7656C140.394 43.5642 140.862 43.7755 141.074 44.8711C141.338 46.2439 140.664 47.6364 141.674 48.7452C142.407 49.5438 143.238 49.8144 144.327 49.6494C145.535 49.4712 146.822 49.2667 147.436 48.1249C148.644 45.8677 147.126 44.1516 146.413 41.9934C145.595 39.5382 146.393 35.7565 144.486 33.8029C143.516 32.8129 142.09 32.3311 140.77 32.1859C139.437 32.0407 138.275 32.2716 136.975 32.5026C135.972 32.6808 135.074 33.1098 134.078 33.288C133.404 33.4068 133.173 33.1692 133.035 33.882C132.969 34.2318 133.233 35.0238 133.404 35.3274C133.959 36.2976 135.127 36.3438 136.124 36.3306C136.196 36.3306 136.269 36.3306 136.341 36.3306Z" fill="#292C3D"/>
<path d="M126.825 70.2832H125.644V122.463H126.825V70.2832Z" fill="#7695A8"/>
<path d="M88.1824 70.2832H87.001V122.463H88.1824V70.2832Z" fill="#7695A8"/>
<path d="M126.819 70.2832H87.001V71.6692H126.819V70.2832Z" fill="#7695A8"/>
<path d="M110.847 65.9981L110.886 70.2815C110.886 70.2815 125.248 70.9679 129.28 69.6215C133.313 68.2751 141.807 57.4379 142.533 55.6229C143.404 53.4383 140.078 48.1319 136.791 52.9697C133.498 57.8075 127.531 64.3151 127.195 64.5197C126.858 64.7243 110.847 65.9981 110.847 65.9981Z" fill="#F25D59"/>
</g>
<defs>
<clipPath id="clip0_464_5254">
<rect width="160.38" height="123.42" fill="white" transform="translate(0.709961 0.390625)"/>
</clipPath>
</defs>
</svg>
